# xmcd
# 
# Track frame offsets:
#     150
#     7976
#     18333
#     33349
#     48176
#     60417
#     75260
#     90951
#     107027
#     122694
# 
# Disc length: 1740
# 
# Revision: 0
# Processed by: cddbd v1.5.2PL0 Copyright (c) Steve Scherf et al.
# Submitted via: fre:ac v1.0.27
# 
DISCID=5f06ca0a
DTITLE=Luke Kaufman - Beyond The Bunkhouse
DYEAR=2012
DGENRE=Country
TTITLE0=Intro (Not the Worst)
TTITLE1=No Need to Be Quiet
TTITLE2=Bad Example
TTITLE3=We Rock and We Roll
TTITLE4=No Money No Problems
TTITLE5=Caleechi
TTITLE6=I Like the Girls (feat. Matt Borden)
TTITLE7=Out All Night
TTITLE8=Extra 100 Horsepower
TTITLE9=Community Watch
EXTD=
EXTT0=
EXTT1=
EXTT2=
EXTT3=
EXTT4=
EXTT5=
EXTT6=
EXTT7=
EXTT8=
EXTT9=
PLAYORDER=
